<svg xmlns="http://www.w3.org/2000/svg" viewBox="0 0 64 64">
  <rect width="64" height="64" rx="14" fill="#f9fafb"/>
  <g transform="translate(8,4) scale(0.75)">
    <!-- Horse head silhouette - solid black -->
    <path d="M22 64 C22 52, 20 44, 23 36 C25 31, 27 28, 27 24 C27 18, 25 14, 23 10 C22 7, 24 5, 28 5 C33 5, 37 8, 39 12 C41 16, 43 20, 45 23 C49 27, 53 29, 55 33 C57 37, 57 44, 53 50 C49 56, 43 60, 39 64 Z" fill="#111827"/>
    <!-- Ear -->
    <path d="M28 5 L23 0 L22 10 Z" fill="#111827"/>
    <!-- Mane flowing -->
    <path d="M35 8 C38 12, 40 18, 38 25 C36 30, 33 34, 30 38" fill="none" stroke="#111827" stroke-width="4" stroke-linecap="round"/>
    <path d="M37 6 C41 10, 43 16, 41 22" fill="none" stroke="#111827" stroke-width="3" stroke-linecap="round"/>
    <!-- Eye -->
    <circle cx="31" cy="17" r="2" fill="#f9fafb"/>
    <!-- Nostril -->
    <circle cx="25" cy="31" r="1.5" fill="#f9fafb"/>
  </g>
</svg>
