<svg xmlns="http://www.w3.org/2000/svg" viewBox="0 0 64 64">
  <defs>
    <linearGradient id="g" x1="0%" y1="0%" x2="100%" y2="100%">
      <stop offset="0%" stop-color="#1e3a5f"/>
      <stop offset="100%" stop-color="#111827"/>
    </linearGradient>
  </defs>
  <rect width="64" height="64" rx="14" fill="url(#g)"/>
  <g transform="translate(10,6) scale(0.68)" fill="none" stroke="#fff" stroke-width="3.5" stroke-linecap="round" stroke-linejoin="round">
    <!-- Horse head silhouette -->
    <path d="M20 62 C20 50, 18 42, 22 34 C24 30, 26 28, 26 24 C26 18, 24 14, 22 10 C22 8, 24 6, 28 6 C32 6, 36 8, 38 12 C40 16, 42 20, 44 22 C48 26, 52 28, 54 32 C56 36, 56 42, 52 48 C48 54, 42 58, 38 62" fill="rgba(255,255,255,0.15)"/>
    <!-- Ear -->
    <path d="M28 6 L24 2 L22 10"/>
    <!-- Eye -->
    <circle cx="30" cy="16" r="2" fill="#fff" stroke="none"/>
    <!-- Mane -->
    <path d="M34 10 C36 14, 38 18, 36 24 C34 28, 32 30, 30 34"/>
    <!-- Nostril -->
    <circle cx="24" cy="30" r="1.5" fill="#fff" stroke="none"/>
  </g>
</svg>
